<?xml version="1.0" encoding="UTF-8"?>
<svg version="1.1" xmlns="http://www.w3.org/2000/svg" width="40" height="40">
<path d="M0 0 C4.93118269 3.48790971 8.5680539 7.03910339 10.5625 12.8125 C11.21618007 19.32243717 11.46933101 25.28904926 7.5625 30.8125 C3.59106263 35.42795424 -0.07287047 38.47464862 -6.27734375 39.09765625 C-13.77681652 39.31086747 -18.33689161 38.48046536 -24.125 33.5 C-29.10546536 27.71189161 -29.93586747 23.15181652 -29.72265625 15.65234375 C-29.09964862 9.44787047 -26.05295424 5.78393737 -21.4375 1.8125 C-15.20820182 -2.59358896 -7.02670166 -2.42740603 0 0 Z " fill="#2C7431" transform="translate(29.4375,1.1875)"/>
<path d="M0 0 C0.66 0.66 1.32 1.32 2 2 C4.57061311 2.64767793 4.57061311 2.64767793 7 3 C7.33 2.01 7.66 1.02 8 0 C8 0.99 8 1.98 8 3 C8.99 3 9.98 3 11 3 C11.33 6.3 11.66 9.6 12 13 C6.72 13 1.44 13 -4 13 C-3.67 9.7 -3.34 6.4 -3 3 C-2.01 3 -1.02 3 0 3 C0 2.01 0 1.02 0 0 Z " fill="#30712F" transform="translate(16,15)"/>
<path d="M0 0 C0.66 0.66 1.32 1.32 2 2 C4.57061311 2.64767793 4.57061311 2.64767793 7 3 C7.33 2.01 7.66 1.02 8 0 C8 0.99 8 1.98 8 3 C8.99 3 9.98 3 11 3 C11.33 6.3 11.66 9.6 12 13 C6.72 13 1.44 13 -4 13 C-3.67 9.7 -3.34 6.4 -3 3 C-2.01 3 -1.02 3 0 3 C0 2.01 0 1.02 0 0 Z M-1 4 C-1.33 6.64 -1.66 9.28 -2 12 C1.96 12 5.92 12 10 12 C10 10.02 10 8.04 10 6 C8.21342243 3.78629949 8.21342243 3.78629949 5.8359375 3.8046875 C5.02382813 3.82789063 4.21171875 3.85109375 3.375 3.875 C2.14910156 3.90207031 2.14910156 3.90207031 0.8984375 3.9296875 C-0.04128906 3.96449219 -0.04128906 3.96449219 -1 4 Z " fill="#BDE5B8" transform="translate(16,15)"/>
<path d="M0 0 C2.5625 0.25 2.5625 0.25 5 1 C5.33 1.66 5.66 2.32 6 3 C5.67 3.99 5.34 4.98 5 6 C3.35 6 1.7 6 0 6 C-0.66 4.68 -1.32 3.36 -2 2 C-1.34 1.34 -0.68 0.68 0 0 Z " fill="#7EA981" transform="translate(18,12)"/>
<path d="M0 0 C2 2 2 2 2 8 C-1.96 8 -5.92 8 -10 8 C-10 7.67 -10 7.34 -10 7 C-7.36 6.67 -4.72 6.34 -2 6 C-1.34 4.02 -0.68 2.04 0 0 Z " fill="#487A44" transform="translate(24,19)"/>
<path d="M0 0 C0.66 0.66 1.32 1.32 2 2 C4.57061311 2.64767793 4.57061311 2.64767793 7 3 C7.33 2.01 7.66 1.02 8 0 C8 0.99 8 1.98 8 3 C8.66 3.33 9.32 3.66 10 4 C9.34 4 8.68 4 8 4 C7.67 4.66 7.34 5.32 7 6 C7 5.34 7 4.68 7 4 C5.02 4 3.04 4 1 4 C0.67 4.66 0.34 5.32 0 6 C0 5.34 0 4.68 0 4 C-0.66 3.67 -1.32 3.34 -2 3 C-1.34 3 -0.68 3 0 3 C0 2.01 0 1.02 0 0 Z " fill="#E8FCEB" transform="translate(16,15)"/>
<path d="M0 0 C2.64 0 5.28 0 8 0 C8 0.66 8 1.32 8 2 C5.03 2.66 2.06 3.32 -1 4 C-0.67 2.68 -0.34 1.36 0 0 Z " fill="#477C4A" transform="translate(15,19)"/>
</svg>
