<?xml version="1.0" encoding="UTF-8"?>
<svg version="1.1" xmlns="http://www.w3.org/2000/svg" width="40" height="40">
<path d="M0 0 C4.93118269 3.48790971 8.5680539 7.03910339 10.5625 12.8125 C11.21618007 19.32243717 11.46933101 25.28904926 7.5625 30.8125 C3.59106263 35.42795424 -0.07287047 38.47464862 -6.27734375 39.09765625 C-13.77681652 39.31086747 -18.33689161 38.48046536 -24.125 33.5 C-29.10546536 27.71189161 -29.93586747 23.15181652 -29.72265625 15.65234375 C-29.09964862 9.44787047 -26.05295424 5.78393737 -21.4375 1.8125 C-15.20820182 -2.59358896 -7.02670166 -2.42740603 0 0 Z " fill="#02B108" transform="translate(29.4375,1.1875)"/>
<path d="M0 0 C1.8125 1.20833333 3.625 2.41666667 5.4375 3.625 C5.1075 4.945 4.7775 6.265 4.4375 7.625 C3.7775 7.295 3.1175 6.965 2.4375 6.625 C2.4375 5.965 2.4375 5.305 2.4375 4.625 C1.4475 4.625 0.4575 4.625 -0.5625 4.625 C-0.0675 5.24375 0.4275 5.8625 0.9375 6.5 C2.4375 8.625 2.4375 8.625 2.4375 10.625 C0.4575 10.955 -1.5225 11.285 -3.5625 11.625 C-3.5625 10.965 -3.5625 10.305 -3.5625 9.625 C-5.8725 9.625 -8.1825 9.625 -10.5625 9.625 C-9.5725 9.295 -8.5825 8.965 -7.5625 8.625 C-7.5625 7.965 -7.5625 7.305 -7.5625 6.625 C-10.2025 7.285 -12.8425 7.945 -15.5625 8.625 C-15.8925 7.635 -16.2225 6.645 -16.5625 5.625 C-17.5525 5.295 -18.5425 4.965 -19.5625 4.625 C-20.2225 5.945 -20.8825 7.265 -21.5625 8.625 C-22.8825 8.625 -24.2025 8.625 -25.5625 8.625 C-25.4375 6.375 -25.4375 6.375 -24.5625 3.625 C-17.33475297 -2.03149767 -8.6386518 -3.33421648 0 0 Z " fill="#03B207" transform="translate(29.5625,1.375)"/>
<path d="M0 0 C1.15628906 0.00515625 2.31257813 0.0103125 3.50390625 0.015625 C4.65761719 0.01046875 5.81132812 0.0053125 7 0 C10.06640625 0.265625 10.06640625 0.265625 13.06640625 2.265625 C13.61369979 6.40941897 13.53911264 8.53211508 11.25390625 12.078125 C9.06640625 14.265625 9.06640625 14.265625 6.06640625 16.265625 C1.67221814 16.03435194 -0.74718193 14.1865025 -3.93359375 11.265625 C-5.44021472 8.25238305 -5.11129748 5.58276123 -4.93359375 2.265625 C-2.93359375 0.265625 -2.93359375 0.265625 0 0 Z " fill="#0DB011" transform="translate(15.93359375,11.734375)"/>
<path d="M0 0 C1.15628906 0.00515625 2.31257813 0.0103125 3.50390625 0.015625 C4.65761719 0.01046875 5.81132812 0.0053125 7 0 C10.06640625 0.265625 10.06640625 0.265625 13.06640625 2.265625 C13.61369979 6.40941897 13.53911264 8.53211508 11.25390625 12.078125 C9.06640625 14.265625 9.06640625 14.265625 6.06640625 16.265625 C1.67221814 16.03435194 -0.74718193 14.1865025 -3.93359375 11.265625 C-5.44021472 8.25238305 -5.11129748 5.58276123 -4.93359375 2.265625 C-2.93359375 0.265625 -2.93359375 0.265625 0 0 Z M-3.93359375 4.265625 C-3.83697463 7.84053248 -2.907506 9.29895935 -0.68359375 12.140625 C1.82539698 14.51271842 1.82539698 14.51271842 4.62890625 14.328125 C7.57128739 13.0455486 9.09443258 11.80101972 11.06640625 9.265625 C12.04251467 6.72511286 12.04251467 6.72511286 12.06640625 4.265625 C10.21002803 1.98534851 10.21002803 1.98534851 7.31640625 2 C5.70765625 2.00773438 5.70765625 2.00773438 4.06640625 2.015625 C2.99390625 2.01046875 1.92140625 2.0053125 0.81640625 2 C-2.07721553 1.98534851 -2.07721553 1.98534851 -3.93359375 4.265625 Z " fill="#A6F5A8" transform="translate(15.93359375,11.734375)"/>
<path d="M0 0 C0.66 0 1.32 0 2 0 C2.08636719 0.60328125 2.17273438 1.2065625 2.26171875 1.828125 C2.9705615 5.86007456 3.52515628 8.43018754 6.1875 11.625 C9.8521765 13.41661962 12.0963369 12.91850896 16 12 C15.01 13.32 14.02 14.64 13 16 C7.89841404 15.14973567 4.51113551 13.86224906 1 10 C0.01 10.495 0.01 10.495 -1 11 C-1 9.68 -1 8.36 -1 7 C-0.34 7 0.32 7 1 7 C0.67 4.69 0.34 2.38 0 0 Z " fill="#1BAD1B" transform="translate(9,14)"/>
<path d="M0 0 C2.27071461 1.01790655 3.80784632 1.77442829 5.4375 3.6875 C5.953125 4.120625 6.46875 4.55375 7 5 C9.48823926 4.81931089 9.48823926 4.81931089 12 4 C12.763125 3.814375 13.52625 3.62875 14.3125 3.4375 C14.869375 3.293125 15.42625 3.14875 16 3 C13.8125 5.5625 13.8125 5.5625 11 8 C6.64739514 8.10881512 4.07789693 5.90690266 1 3 C0.67 2.01 0.34 1.02 0 0 Z " fill="#9BF494" transform="translate(11,20)"/>
<path d="M0 0 C0 0.66 0 1.32 0 2 C1.32 2.66 2.64 3.32 4 4 C-0.3164922 4.76173392 -3.74433453 5.16063604 -8 4 C-8 3.34 -8 2.68 -8 2 C-4.77208445 -0.1519437 -3.71599191 -0.20086443 0 0 Z " fill="#0AAB16" transform="translate(22,8)"/>
<path d="M0 0 C0.66 0 1.32 0 2 0 C2.36279456 1.28926992 2.71496698 2.58153272 3.0625 3.875 C3.25972656 4.59429688 3.45695312 5.31359375 3.66015625 6.0546875 C4 8 4 8 3 10 C2.34 10 1.68 10 1 10 C1 10.66 1 11.32 1 12 C0.01 12.33 -0.98 12.66 -2 13 C-1.67 12.34 -1.34 11.68 -1 11 C0.28687011 7.13938967 0.13757618 4.05849717 0 0 Z " fill="#1BAC22" transform="translate(28,13)"/>
</svg>
